<svg width="19" height="23" viewBox="0 0 19 23" fill="none" xmlns="http://www.w3.org/2000/svg">
<path fill-rule="evenodd" clip-rule="evenodd" d="M0.891121 5.66668V11.5417L0.891113 11.5417C0.891113 16.5728 4.46359 20.9321 9.49082 22.4502C9.56409 22.4723 9.6219 22.4794 9.69923 22.4481C12.2145 21.6884 14.3831 20.2058 15.9119 18.2701C17.4076 16.3763 18.2923 14.0494 18.2923 11.5417V5.66342C18.2923 5.52883 18.1815 5.41852 18.0409 5.40882C17.3442 5.31444 16.5458 5.09111 15.6899 4.74515C13.5722 3.88916 11.3604 2.38587 9.79233 0.767145C9.69136 0.662765 9.51948 0.655327 9.39439 0.764531C8.93116 1.24019 8.42423 1.69983 7.86975 2.14373C6.0483 3.60185 3.40439 5.10387 1.12563 5.41114C0.98947 5.42978 0.891121 5.53803 0.891121 5.66668ZM1.43451 5.88068C3.09313 5.60618 4.89981 4.76562 6.4182 3.81152C7.57164 3.08668 8.66316 2.23446 9.59178 1.31323C11.6151 3.32102 14.9106 5.41069 17.749 5.88068V11.5417C17.749 13.9373 16.9045 16.1593 15.4768 17.967C14.0256 19.8043 11.9727 21.2148 9.59178 21.9464C7.21094 21.2148 5.15797 19.8043 3.7068 17.967C2.27895 16.1592 1.43451 13.9373 1.43451 11.5417V5.88068Z" fill="#3684C6"/>
<path d="M0.891121 11.5417L0.764391 11.6964L1.09112 11.964V11.5417H0.891121ZM0.891113 11.5417L1.01784 11.3869L0.691113 11.1193V11.5417H0.891113ZM9.49082 22.4502L9.54873 22.2587L9.54863 22.2587L9.49082 22.4502ZM9.69923 22.4481L9.6414 22.2567L9.63265 22.2593L9.62417 22.2627L9.69923 22.4481ZM15.9119 18.2701L15.7549 18.1462V18.1462L15.9119 18.2701ZM18.0409 5.40882L18.014 5.60744L18.0271 5.60835L18.0409 5.40882ZM15.6899 4.74515L15.7648 4.55973L15.7648 4.55973L15.6899 4.74515ZM9.79233 0.767145L9.64858 0.906198L9.64868 0.906301L9.79233 0.767145ZM9.39439 0.764531L9.26286 0.613868L9.25676 0.619193L9.25111 0.624994L9.39439 0.764531ZM7.86975 2.14373L7.99474 2.29987L7.99475 2.29986L7.86975 2.14373ZM1.12563 5.41114L1.0989 5.21293L1.0985 5.21298L1.12563 5.41114ZM6.4182 3.81152L6.52461 3.98087L6.52462 3.98086L6.4182 3.81152ZM1.43451 5.88068L1.40185 5.68336L1.23451 5.71106V5.88068H1.43451ZM9.59178 1.31323L9.73265 1.17126L9.5918 1.03149L9.45092 1.17124L9.59178 1.31323ZM17.749 5.88068H17.949V5.71107L17.7817 5.68336L17.749 5.88068ZM15.4768 17.967L15.6338 18.091L15.4768 17.967ZM9.59178 21.9464L9.53303 22.1376L9.59178 22.1556L9.65052 22.1376L9.59178 21.9464ZM3.7068 17.967L3.86375 17.843L3.86375 17.843L3.7068 17.967ZM1.09112 11.5417V5.66668H0.691121V11.5417H1.09112ZM0.764382 11.6964L0.764391 11.6964L1.01785 11.387L1.01784 11.3869L0.764382 11.6964ZM9.54863 22.2587C4.59467 20.7628 1.09111 16.4735 1.09111 11.5417H0.691113C0.691113 16.6721 4.3325 21.1015 9.433 22.6416L9.54863 22.2587ZM9.62417 22.2627C9.60816 22.2692 9.60111 22.2693 9.59727 22.2692C9.59072 22.2691 9.57818 22.2677 9.54873 22.2587L9.43291 22.6416C9.5309 22.6713 9.6393 22.6881 9.77428 22.6335L9.62417 22.2627ZM15.7549 18.1462C14.2521 20.0489 12.1185 21.5085 9.6414 22.2567L9.75706 22.6396C12.3104 21.8683 14.514 20.3627 16.0688 18.3941L15.7549 18.1462ZM18.0923 11.5417C18.0923 14.0011 17.2249 16.285 15.7549 18.1462L16.0688 18.3941C17.5904 16.4677 18.4923 14.0977 18.4923 11.5417H18.0923ZM18.0923 5.66342V11.5417H18.4923V5.66342H18.0923ZM18.0271 5.60835C18.0743 5.6116 18.0923 5.64503 18.0923 5.66342H18.4923C18.4923 5.41264 18.2887 5.22544 18.0547 5.2093L18.0271 5.60835ZM15.6149 4.93058C16.4823 5.28116 17.2971 5.50988 18.014 5.60701L18.0677 5.21063C17.3913 5.119 16.6093 4.90106 15.7648 4.55973L15.6149 4.93058ZM9.64868 0.906301C11.2359 2.54474 13.4709 4.06395 15.6149 4.93058L15.7648 4.55973C13.6734 3.71436 11.485 2.22699 9.93598 0.627989L9.64868 0.906301ZM9.52592 0.915195C9.57767 0.870017 9.62784 0.884753 9.64858 0.906198L9.93608 0.628092C9.75489 0.440776 9.46129 0.440637 9.26286 0.613868L9.52592 0.915195ZM7.99475 2.29986C8.55539 1.85102 9.06846 1.38587 9.53767 0.904069L9.25111 0.624994C8.79385 1.09452 8.29306 1.54864 7.74476 1.9876L7.99475 2.29986ZM1.15235 5.60934C3.48291 5.2951 6.16078 3.768 7.99474 2.29987L7.74476 1.9876C5.93583 3.43569 3.32587 4.91265 1.0989 5.21293L1.15235 5.60934ZM1.09112 5.66668C1.09112 5.64626 1.10725 5.61552 1.15276 5.60929L1.0985 5.21298C0.871695 5.24404 0.691121 5.4298 0.691121 5.66668H1.09112ZM6.31179 3.64218C4.80511 4.58892 3.02411 5.41488 1.40185 5.68336L1.46716 6.07799C3.16214 5.79748 4.9945 4.94232 6.52461 3.98087L6.31179 3.64218ZM9.45092 1.17124C8.53374 2.08113 7.45402 2.92439 6.31179 3.64218L6.52462 3.98086C7.68926 3.24898 8.79258 2.38779 9.73263 1.45521L9.45092 1.17124ZM17.7817 5.68336C14.9978 5.2224 11.7381 3.16131 9.73265 1.17126L9.4509 1.45519C11.4921 3.48074 14.8234 5.59898 17.7164 6.07799L17.7817 5.68336ZM17.949 11.5417V5.88068H17.549V11.5417H17.949ZM15.6338 18.091C17.0873 16.2506 17.949 13.9855 17.949 11.5417H17.549C17.549 13.8891 16.7218 16.068 15.3199 17.843L15.6338 18.091ZM9.65052 22.1376C12.0692 21.3944 14.1568 19.961 15.6338 18.091L15.3199 17.843C13.8945 19.6477 11.8761 21.0352 9.53304 21.7552L9.65052 22.1376ZM3.54985 18.091C5.02681 19.961 7.11439 21.3944 9.53303 22.1376L9.65052 21.7552C7.30748 21.0352 5.28912 19.6477 3.86375 17.843L3.54985 18.091ZM1.23451 11.5417C1.23451 13.9855 2.09619 16.2505 3.54985 18.091L3.86375 17.843C2.4617 16.0679 1.63451 13.8891 1.63451 11.5417H1.23451ZM1.23451 5.88068V11.5417H1.63451V5.88068H1.23451Z" fill="#3684C6"/>
<path fill-rule="evenodd" clip-rule="evenodd" d="M11.5002 9.18274L9.83904 6.36584L9.83905 6.36583C9.74781 6.17677 9.46276 6.1635 9.35415 6.34774L9.3549 6.34814L7.68329 9.18274L4.31253 9.79812C4.07797 9.83425 4.00861 10.0829 4.14996 10.2253L4.15038 10.2249L6.50256 12.5947L6.08302 15.8033C6.05147 16.0142 6.27554 16.1581 6.4662 16.0745L6.46614 16.0744L9.59174 14.7045L12.7111 16.0717C12.9117 16.1626 13.1275 16.0092 13.1018 15.812H13.1016L12.6809 12.5947L15.0209 10.2372C15.2348 10.0357 15.0013 9.79153 14.8867 9.80053L11.5002 9.18274ZM9.59178 6.99643L11.088 9.53367L11.0873 9.53407C11.1305 9.60724 11.2063 9.65267 11.2882 9.66327L14.3029 10.2137L12.1978 12.3345L12.1974 12.3341C12.1385 12.3935 12.1155 12.4722 12.1275 12.5467L12.5029 15.4173L9.70656 14.1916L9.70662 14.1915C9.62897 14.1575 9.54286 14.161 9.47152 14.194L6.6807 15.4173L7.05698 12.5394H7.05714C7.0681 12.4557 7.03452 12.3764 6.97382 12.3225L4.88068 10.2137L7.90964 9.66066C7.97066 9.66544 8.06639 9.5902 8.10645 9.51517L9.59178 6.99643Z" fill="#3684C6"/>
<path d="M9.83904 6.36584L9.66404 6.26901L9.60872 6.369L9.66677 6.46743L9.83904 6.36584ZM11.5002 9.18274L11.3279 9.28434L11.3744 9.36309L11.4643 9.3795L11.5002 9.18274ZM9.83905 6.36583L10.014 6.46266L10.0641 6.37211L10.0192 6.27891L9.83905 6.36583ZM9.35415 6.34774L9.18186 6.24617L9.07612 6.42551L9.25957 6.52396L9.35415 6.34774ZM9.3549 6.34814L9.52717 6.44974L9.63294 6.27038L9.44947 6.17192L9.3549 6.34814ZM7.68329 9.18274L7.71921 9.37949L7.80913 9.36307L7.85557 9.28433L7.68329 9.18274ZM4.31253 9.79812L4.343 9.99586L4.34845 9.99486L4.31253 9.79812ZM4.14996 10.2253L4.00802 10.3662L4.1451 10.5043L4.2869 10.371L4.14996 10.2253ZM4.15038 10.2249L4.29233 10.084L4.15526 9.94589L4.01344 10.0791L4.15038 10.2249ZM6.50256 12.5947L6.70087 12.6207L6.71359 12.5234L6.64451 12.4538L6.50256 12.5947ZM6.08302 15.8033L6.28085 15.8329L6.28133 15.8292L6.08302 15.8033ZM6.4662 16.0745L6.54645 16.2577L6.74433 16.171L6.64267 15.9804L6.4662 16.0745ZM6.46614 16.0744L6.38586 15.8913L6.18803 15.978L6.28967 16.1686L6.46614 16.0744ZM9.59174 14.7045L9.67203 14.5213L9.59174 14.4861L9.51145 14.5213L9.59174 14.7045ZM12.7111 16.0717L12.7937 15.8895L12.7914 15.8886L12.7111 16.0717ZM13.1018 15.812L13.3001 15.7861L13.2773 15.612H13.1018V15.812ZM13.1016 15.812L12.9033 15.8379L12.926 16.012H13.1016V15.812ZM12.6809 12.5947L12.539 12.4538L12.4699 12.5234L12.4826 12.6207L12.6809 12.5947ZM15.0209 10.2372L14.8836 10.0916L14.8789 10.0964L15.0209 10.2372ZM14.8867 9.80053L14.8508 9.99728L14.8764 10.002L14.9023 9.99992L14.8867 9.80053ZM11.088 9.53367L11.1839 9.70919L11.3653 9.6101L11.2603 9.43207L11.088 9.53367ZM9.59178 6.99643L9.76405 6.89483L9.59178 6.6027L9.4195 6.89483L9.59178 6.99643ZM11.0873 9.53407L10.9914 9.35855L10.81 9.45764L10.915 9.63567L11.0873 9.53407ZM11.2882 9.66327L11.3242 9.46626L11.3139 9.46493L11.2882 9.66327ZM14.3029 10.2137L14.4449 10.3546L14.7123 10.0851L14.3388 10.0169L14.3029 10.2137ZM12.1978 12.3345L12.061 12.4804L12.2028 12.6135L12.3398 12.4754L12.1978 12.3345ZM12.1974 12.3341L12.3343 12.1883L12.1925 12.0552L12.0554 12.1933L12.1974 12.3341ZM12.1275 12.5467L12.3259 12.5207L12.325 12.5149L12.1275 12.5467ZM12.5029 15.4173L12.4226 15.6004L12.7471 15.7427L12.7012 15.3913L12.5029 15.4173ZM9.70656 14.1916L9.52991 14.0978L9.42884 14.2882L9.62627 14.3748L9.70656 14.1916ZM9.70662 14.1915L9.88327 14.2852L9.98436 14.0948L9.78688 14.0083L9.70662 14.1915ZM9.47152 14.194L9.55183 14.3772L9.55552 14.3755L9.47152 14.194ZM6.6807 15.4173L6.48238 15.3913L6.43644 15.7427L6.76099 15.6004L6.6807 15.4173ZM7.05698 12.5394V12.3394H6.88143L6.85867 12.5135L7.05698 12.5394ZM7.05714 12.5394V12.7394H7.23267L7.25545 12.5654L7.05714 12.5394ZM6.97382 12.3225L6.83158 12.4637L6.84106 12.4721L6.97382 12.3225ZM4.88068 10.2137L4.84476 10.0169L4.47129 10.0851L4.73873 10.3546L4.88068 10.2137ZM7.90964 9.66066L7.92525 9.46127L7.89931 9.45924L7.87372 9.46391L7.90964 9.66066ZM8.10645 9.51517L7.93402 9.41349L7.93002 9.42098L8.10645 9.51517ZM9.66677 6.46743L11.3279 9.28434L11.6725 9.08115L10.0113 6.26424L9.66677 6.46743ZM9.66405 6.269L9.66404 6.26901L10.014 6.46267L10.014 6.46266L9.66405 6.269ZM9.52643 6.44931C9.53793 6.42981 9.56118 6.41526 9.59497 6.41663C9.62927 6.41803 9.65023 6.43475 9.65892 6.45276L10.0192 6.27891C9.85828 5.94552 9.37138 5.9247 9.18186 6.24617L9.52643 6.44931ZM9.44947 6.17192L9.44872 6.17151L9.25957 6.52396L9.26032 6.52437L9.44947 6.17192ZM7.85557 9.28433L9.52717 6.44974L9.18262 6.24655L7.51102 9.08115L7.85557 9.28433ZM4.34845 9.99486L7.71921 9.37949L7.64737 8.98599L4.27662 9.60137L4.34845 9.99486ZM4.29189 10.0844C4.2766 10.069 4.27436 10.0516 4.27945 10.0368C4.28206 10.0292 4.28696 10.0214 4.29524 10.0146C4.30319 10.0081 4.31768 9.99968 4.34298 9.99578L4.28208 9.60045C3.89325 9.66035 3.74634 10.1026 4.00802 10.3662L4.29189 10.0844ZM4.01344 10.0791L4.01302 10.0795L4.2869 10.371L4.28733 10.3706L4.01344 10.0791ZM6.64451 12.4538L4.29233 10.084L4.00844 10.3658L6.36061 12.7356L6.64451 12.4538ZM6.28133 15.8292L6.70087 12.6207L6.30425 12.5688L5.88471 15.7773L6.28133 15.8292ZM6.38594 15.8914C6.35729 15.9039 6.32632 15.8994 6.30415 15.8842C6.29359 15.877 6.28728 15.8688 6.28397 15.8618C6.28107 15.8555 6.27874 15.8467 6.28082 15.8329L5.88522 15.7737C5.85693 15.9628 5.94603 16.124 6.07841 16.2145C6.20805 16.3031 6.38445 16.3287 6.54645 16.2577L6.38594 15.8914ZM6.28967 16.1686L6.28973 16.1687L6.64267 15.9804L6.64261 15.9803L6.28967 16.1686ZM9.51145 14.5213L6.38586 15.8913L6.54643 16.2576L9.67203 14.8877L9.51145 14.5213ZM12.7914 15.8886L9.67203 14.5213L9.51145 14.8877L12.6309 16.2549L12.7914 15.8886ZM12.9034 15.8379C12.9054 15.8525 12.9002 15.8699 12.8787 15.8846C12.8578 15.8988 12.8274 15.9048 12.7937 15.8895L12.6286 16.2539C12.952 16.4004 13.349 16.16 13.3001 15.7861L12.9034 15.8379ZM13.1016 16.012H13.1018V15.612H13.1016V16.012ZM12.4826 12.6207L12.9033 15.8379L13.2999 15.7861L12.8792 12.5688L12.4826 12.6207ZM14.8789 10.0964L12.539 12.4538L12.8229 12.7356L15.1628 10.3781L14.8789 10.0964ZM14.9023 9.99992C14.8802 10.0017 14.8669 9.99682 14.8653 9.99623C14.8627 9.99528 14.8646 9.99563 14.8698 9.99935C14.8809 10.0073 14.8932 10.0205 14.901 10.035C14.9084 10.0486 14.9081 10.0561 14.9079 10.0578C14.9077 10.0588 14.9073 10.0614 14.9049 10.066C14.9023 10.0708 14.8965 10.0797 14.8837 10.0917L15.158 10.3828C15.2409 10.3047 15.2918 10.2105 15.3047 10.1076C15.3173 10.0072 15.2916 9.91631 15.253 9.84489C15.2149 9.77426 15.1607 9.71554 15.1024 9.6739C15.05 9.63645 14.9668 9.59363 14.871 9.60114L14.9023 9.99992ZM11.4643 9.3795L14.8508 9.99728L14.9226 9.60378L11.5361 8.98599L11.4643 9.3795ZM11.2603 9.43207L9.76405 6.89483L9.4195 7.09802L10.9158 9.63526L11.2603 9.43207ZM11.1832 9.70959L11.1839 9.70919L10.9921 9.35815L10.9914 9.35855L11.1832 9.70959ZM11.3139 9.46493C11.287 9.46145 11.2684 9.4474 11.2596 9.43246L10.915 9.63567C10.9925 9.76708 11.1256 9.84389 11.2625 9.86162L11.3139 9.46493ZM14.3388 10.0169L11.3241 9.46653L11.2523 9.86002L14.267 10.4104L14.3388 10.0169ZM12.3398 12.4754L14.4449 10.3546L14.161 10.0728L12.0559 12.1937L12.3398 12.4754ZM12.0605 12.48L12.061 12.4804L12.3347 12.1887L12.3343 12.1883L12.0605 12.48ZM12.325 12.5149C12.323 12.5029 12.326 12.4885 12.3394 12.475L12.0554 12.1933C11.9511 12.2985 11.908 12.4415 11.9301 12.5784L12.325 12.5149ZM12.7012 15.3913L12.3258 12.5207L11.9292 12.5726L12.3046 15.4432L12.7012 15.3913ZM9.62627 14.3748L12.4226 15.6004L12.5832 15.2341L9.78685 14.0084L9.62627 14.3748ZM9.52996 14.0977L9.52991 14.0978L9.88322 14.2853L9.88327 14.2852L9.52996 14.0977ZM9.55552 14.3755C9.57716 14.3655 9.60343 14.3646 9.62635 14.3747L9.78688 14.0083C9.6545 13.9503 9.50856 13.9565 9.38752 14.0125L9.55552 14.3755ZM6.76099 15.6004L9.55181 14.3772L9.39123 14.0108L6.60041 15.2341L6.76099 15.6004ZM6.85867 12.5135L6.48238 15.3913L6.87901 15.4432L7.25529 12.5654L6.85867 12.5135ZM7.05714 12.3394H7.05698V12.7394H7.05714V12.3394ZM6.84106 12.4721C6.85642 12.4858 6.86047 12.5009 6.85883 12.5135L7.25545 12.5654C7.27573 12.4104 7.21261 12.2671 7.10658 12.173L6.84106 12.4721ZM4.73873 10.3546L6.83187 12.4634L7.11577 12.1816L5.02263 10.0728L4.73873 10.3546ZM7.87372 9.46391L4.84476 10.0169L4.9166 10.4104L7.94556 9.85741L7.87372 9.46391ZM7.93002 9.42098C7.92868 9.42348 7.92489 9.42948 7.91781 9.43746C7.91091 9.44523 7.903 9.45249 7.89545 9.45819C7.88749 9.46419 7.88313 9.46607 7.88377 9.4658C7.88431 9.46557 7.88775 9.46417 7.89388 9.46292C7.89991 9.46168 7.91077 9.46014 7.92525 9.46127L7.89404 9.86005C7.99984 9.86833 8.08933 9.81299 8.13637 9.7775C8.1919 9.73559 8.24688 9.67679 8.28288 9.60936L7.93002 9.42098ZM9.4195 6.89483L7.93417 9.41358L8.27872 9.61676L9.76405 7.09802L9.4195 6.89483Z" fill="#3684C6"/>
</svg>
