<svg id="Layer_1" data-name="Layer 1" xmlns="http://www.w3.org/2000/svg" viewBox="0 0 33.62 33.62" class="jss12" style="color: rgb(255, 255, 255);">
    <path class="cls-1" d="M50.86,30.87a23.26,23.26,0,0,0-1.37-8.1,10.31,10.31,0,0,0-5.84-6,22.84,22.84,0,0,0-7.51-1.48,31,31,0,0,0-9.31.74c-4.18,1-7.1,3.39-8.41,7.58a32.56,32.56,0,0,0-1.28,8.58c.26,2.18.38,4.38.81,6.53A11.25,11.25,0,0,0,24,47a19.22,19.22,0,0,0,8.37,1.78,43.22,43.22,0,0,0,8.11-.57,11.18,11.18,0,0,0,9.26-7.67A27.63,27.63,0,0,0,50.86,30.87ZM23.6,29.16a10.94,10.94,0,0,1,8.18-7.74,10.61,10.61,0,0,1,5.93.35,2.15,2.15,0,0,1,.43.29c-5.9.12-8.1,3.29-8.51,6.49-.51,4,1.49,6.57,3.79,7.05a4.93,4.93,0,0,1-3.87,1.17A7.52,7.52,0,0,1,23.9,33,4.19,4.19,0,0,1,23.6,29.16ZM39.24,41.48c-.62.75-2,1-3.05,1.23a10.35,10.35,0,0,1-8.45-1.88,10.69,10.69,0,0,1-4.27-6.43l-.21-1c3.06,4.95,6.28,5.29,9.49,4.52s4.77-3.22,4.92-6.95a5.51,5.51,0,0,1,3.17,3.71A7.14,7.14,0,0,1,39.24,41.48Zm3.4-2.7a20.43,20.43,0,0,1-1.56,1.67l-.22-.1c2-3.89,1.94-7.45-1.5-10.51-2-1.76-5-1.93-8-.42-.46-2.31,1.37-5.18,4.2-6.14A15.74,15.74,0,0,1,38,22.7a3.46,3.46,0,0,1,2.94.92A10.86,10.86,0,0,1,42.64,38.78Z" transform="translate(-17.14 -15.19)"></path>
</svg>