<svg id="Layer_1" data-name="Layer 1" xmlns="http://www.w3.org/2000/svg" viewBox="0 0 205.72 33.62" class="jss12" style="color: rgb(255, 255, 255);">
    <path class="cls-1" d="M50.86,30.87a23.26,23.26,0,0,0-1.37-8.1,10.31,10.31,0,0,0-5.84-6,22.84,22.84,0,0,0-7.51-1.48,31,31,0,0,0-9.31.74c-4.18,1-7.1,3.39-8.41,7.58a32.56,32.56,0,0,0-1.28,8.58c.26,2.18.38,4.38.81,6.53A11.25,11.25,0,0,0,24,47a19.22,19.22,0,0,0,8.37,1.78,43.22,43.22,0,0,0,8.11-.57,11.18,11.18,0,0,0,9.26-7.67A27.63,27.63,0,0,0,50.86,30.87ZM23.6,29.16a10.94,10.94,0,0,1,8.18-7.74,10.61,10.61,0,0,1,5.93.35,2.15,2.15,0,0,1,.43.29c-5.9.12-8.1,3.29-8.51,6.49-.51,4,1.49,6.57,3.79,7.05a4.93,4.93,0,0,1-3.87,1.17A7.52,7.52,0,0,1,23.9,33,4.19,4.19,0,0,1,23.6,29.16ZM39.24,41.48c-.62.75-2,1-3.05,1.23a10.35,10.35,0,0,1-8.45-1.88,10.69,10.69,0,0,1-4.27-6.43l-.21-1c3.06,4.95,6.28,5.29,9.49,4.52s4.77-3.22,4.92-6.95a5.51,5.51,0,0,1,3.17,3.71A7.14,7.14,0,0,1,39.24,41.48Zm3.4-2.7a20.43,20.43,0,0,1-1.56,1.67l-.22-.1c2-3.89,1.94-7.45-1.5-10.51-2-1.76-5-1.93-8-.42-.46-2.31,1.37-5.18,4.2-6.14A15.74,15.74,0,0,1,38,22.7a3.46,3.46,0,0,1,2.94.92A10.86,10.86,0,0,1,42.64,38.78Z" transform="translate(-17.14 -15.19)"></path><path class="cls-1" d="M132.31,31c-.1,2.09-.08,4.12-.32,6.12-.2,1.8-1.81,2.87-4,2.95q-5.85.23-11.72.18a10,10,0,0,1-3.15-.75,2.91,2.91,0,0,1-1.9-2.78c-.15-2.27-.2-4.56-.2-6.83a20.12,20.12,0,0,1,.35-2.78,3,3,0,0,1,2.42-2.65,15.5,15.5,0,0,1,3.5-.57c3-.08,6.06-.07,9.09,0a13.66,13.66,0,0,1,3.23.5c1.76.47,2.52,1.58,2.64,3.61,0,.56,0,1.13,0,1.74h-4.84c-.47-1.63-.53-1.65-2.24-1.68-1.49,0-3-.16-4.46-.17a22,22,0,0,0-2.92.19A1.9,1.9,0,0,0,116,30.17c0,1.6.06,3.22.19,4.82.08.92.87,1.22,1.64,1.24,2.65.05,5.29,0,7.94,0,1.27,0,1.58-.44,1.43-1.9H121V31Z" transform="translate(-17.14 -15.19)"></path><path class="cls-1" d="M101.91,24.1v16c-2.79,0-5.5,0-8.21,0a1.15,1.15,0,0,1-.77-.5c-2.63-3.67-5.24-7.37-7.86-11.06a3,3,0,0,0-.48-.36V40h-5V24h1.27c2.2,0,4.4,0,6.6,0a1.29,1.29,0,0,1,1.21.65l7.77,11.13s.11,0,.27.08V24.1Z" transform="translate(-17.14 -15.19)"></path><path class="cls-1" d="M222.49,27.66A3.51,3.51,0,0,0,220,24.57a11.79,11.79,0,0,0-2.93-.52c-4.81-.06-9.62,0-14.44,0h-1V39.87c5.78,0,11.47.08,17.15,0A3.48,3.48,0,0,0,222.31,37,23.81,23.81,0,0,0,222.49,27.66Zm-7.18,8.18c-2.89.09-5.79,0-8.74,0V28.23c3.16,0,6.28,0,9.4,0a1.61,1.61,0,0,1,1.63,1.62c.11,1.13.19,2.26.19,3.4C217.8,35.05,217.18,35.78,215.31,35.84Z" transform="translate(-17.14 -15.19)"></path><path class="cls-1" d="M199.32,34.79a4.7,4.7,0,0,0-1.33-1,2.45,2.45,0,0,0,1.82-2.12,27.51,27.51,0,0,0,.14-4.53A3.31,3.31,0,0,0,196.28,24H180.15V40h5V36.06c2.77,0,5.47,0,8.18,0,1.08,0,1.53.6,1.54,1.72,0,.72,0,1.45,0,2.23h4.88a1,1,0,0,0,.08-.22c0-1.08.07-2.17,0-3.24A3.76,3.76,0,0,0,199.32,34.79ZM195,30.64a1.75,1.75,0,0,1-1.2,1.16c-2.67.11-5.34.05-8,.05l-.63,0V28.23H192c.35,0,.7,0,1,0C194.83,28.05,195.18,28.75,195,30.64Z" transform="translate(-17.14 -15.19)"></path><path class="cls-1" d="M179,39.1q-2.59-5-5.21-10c-.81-1.55-1.64-3.09-2.51-4.6a1.18,1.18,0,0,0-.87-.48q-3.25-.07-6.51,0a1.16,1.16,0,0,0-.85.49c-1.39,2.59-2.72,5.21-4.1,7.8-.71,1.35-1.5,2.67-2.22,4-.62,1.17-1.19,2.37-1.86,3.71a24.39,24.39,0,0,1,3.55,0,2.52,2.52,0,0,0,3.19-2c.18-.64.6-.74,1.2-.73,2.39,0,4.8.14,7.18,0,1.77-.12,3,.25,3.46,2.1a1,1,0,0,0,.7.59c1.73.05,3.47,0,5.3,0C179.29,39.66,179.17,39.38,179,39.1Zm-15.17-5.38c.42-.86.83-1.68,1.24-2.5s.91-1.91,1.41-2.85c.39-.71.93-.74,1.32,0,.94,1.75,1.82,3.53,2.77,5.39Z" transform="translate(-17.14 -15.19)"></path><path class="cls-1" d="M77.44,34.79c0,1.55-.16,3.17-1.55,4.27a6.39,6.39,0,0,1-4,1.18c-3.18.06-6.38.09-9.56,0A6.59,6.59,0,0,1,58,38.86a3.55,3.55,0,0,1-1.16-2.67c-.1-3.71-.14-7.43-.21-11.14V24h4.92c0,.29.06.56.06.84,0,2.13,0,4.26,0,6.39,0,1,.09,2.08.2,3.11a1.49,1.49,0,0,0,1.42,1.41c2.17.11,4.35.09,6.52.11.26,0,.51,0,.76,0A1.75,1.75,0,0,0,72.29,34c.08-2.94.13-5.89.19-8.84,0-.34,0-.68,0-1.08h5V25C77.46,28.24,77.52,31.51,77.44,34.79Z" transform="translate(-17.14 -15.19)"></path><path class="cls-1" d="M154.8,34.37a13.53,13.53,0,0,1-.38,2.68,3.64,3.64,0,0,1-3.63,3q-5.72.3-11.45.19a5.75,5.75,0,0,1-4-1.32,3.74,3.74,0,0,1-1.18-2.58c-.11-2.05-.16-4.11-.2-6.16s0-4,0-6.06h5c0,1.31,0,2.61,0,3.9,0,2.06.12,4.11.18,6.17a1.55,1.55,0,0,0,1.5,1.64q3.78.15,7.56,0c1,0,1.47-.79,1.47-1.86,0-3.26,0-6.52,0-9.92h5.16v2.05C154.81,28.83,154.85,31.6,154.8,34.37Z" transform="translate(-17.14 -15.19)"></path>
    <rect class="cls-1" x="86.81" y="8.88" width="5.25" height="15.92"></rect>
</svg>